<svg width="195" height="204" viewBox="0 0 195 204" fill="none" xmlns="http://www.w3.org/2000/svg">
<path d="M0.50265 127.523C0.496164 123.712 1.76159 119.788 4.4378 116.497H4.43877L10.2857 109.285L10.2867 109.286C12.0795 107.078 12.9678 104.404 12.9701 101.719V101.718C12.9679 99.2007 12.1851 96.6941 10.6124 94.5716L10.2867 94.1521L4.43877 86.9438L4.4378 86.9428C1.76394 83.6517 0.498501 79.7274 0.500694 75.9119C0.502905 72.1328 1.71272 68.4439 3.95177 65.3993V65.3983C6.18218 62.3588 9.4818 59.9702 13.5344 58.8952H13.5354L22.498 56.5051C27.771 55.1037 31.401 50.3205 31.401 44.9168C31.401 44.8103 31.3997 44.7023 31.3971 44.5931L31.3843 44.2616L30.8856 34.989C30.868 34.6589 30.8592 34.3314 30.8592 34.0061V34.0052C30.8549 29.0389 32.9233 24.6071 36.1292 21.4868H36.1302C39.3361 18.3556 43.7016 16.4636 48.3757 16.4613C50.4654 16.4613 52.612 16.8458 54.7077 17.6553L63.3623 20.9989C64.775 21.5435 66.2313 21.8027 67.671 21.8027C71.6419 21.8003 75.475 19.8216 77.7367 16.3205L82.7779 8.52256V8.52158C86.2101 3.19706 91.8989 0.487654 97.4995 0.500694H97.5024C103.103 0.485312 108.792 3.19691 112.224 8.52158L112.225 8.52256L117.265 16.3205C119.454 19.7126 123.12 21.6755 126.959 21.7968L127.331 21.8027C128.771 21.8027 130.227 21.5435 131.64 20.9989H131.641L140.294 17.6553H140.295C142.259 16.8946 144.268 16.5111 146.234 16.4662L146.626 16.4613C151.154 16.4656 155.393 18.2407 158.569 21.1964L158.873 21.4868C162.079 24.6072 164.148 29.0367 164.144 34.0052V34.0091C164.146 34.3277 164.137 34.6525 164.119 34.9831L164.118 34.9958V35.0095L163.619 44.2635V44.2645C163.607 44.4834 163.599 44.7003 163.599 44.9168C163.599 50.3204 167.228 55.1041 172.501 56.5081L181.465 58.8981H181.466C185.263 59.9081 188.402 62.0703 190.617 64.8409L191.048 65.4032C193.287 68.4479 194.497 72.1376 194.499 75.9168C194.504 79.7277 193.24 83.6518 190.564 86.9428V86.9438L184.715 94.1521C182.923 96.3621 182.035 99.0329 182.033 101.718V101.719C182.033 104.405 182.923 107.076 184.712 109.287L184.713 109.288L190.561 116.497H190.562C193.238 119.788 194.502 123.713 194.497 127.524L194.483 128.232C194.341 131.761 193.145 135.182 191.046 138.036L191.045 138.037C188.815 141.076 185.515 143.465 181.463 144.542L172.499 146.931C167.229 148.333 163.597 153.119 163.597 158.521C163.597 158.63 163.598 158.739 163.601 158.847L163.613 159.149V159.163L163.614 159.177L164.114 168.453C164.132 168.786 164.141 169.114 164.141 169.434V169.435C164.145 174.401 162.077 178.833 158.871 181.954H158.87C155.664 185.085 151.298 186.976 146.624 186.978H146.623C144.536 186.98 142.39 186.596 140.294 185.787L131.641 182.443H131.64C130.227 181.897 128.77 181.637 127.331 181.637C123.358 181.637 119.525 183.618 117.265 187.119L112.225 194.918H112.224C108.792 200.241 103.103 202.952 97.5024 202.937H97.4995C91.8989 202.95 86.2104 200.241 82.7759 194.916H82.775L77.7348 187.117C75.4752 183.616 71.642 181.637 67.669 181.635H67.6681C66.4066 181.637 65.1359 181.836 63.8913 182.251L63.3603 182.442L54.7058 185.785C52.6104 186.594 50.4637 186.976 48.3737 186.976L47.9366 186.97C43.428 186.854 39.2333 184.983 36.1273 181.952V181.951L35.83 181.654C32.7939 178.553 30.852 174.246 30.8563 169.432L30.8631 168.942C30.8677 168.78 30.876 168.616 30.8856 168.45L31.3863 159.177C31.3982 158.958 31.4029 158.738 31.4029 158.521C31.4028 153.119 27.7711 148.335 22.5009 146.931L13.5373 144.542C9.48701 143.465 6.18744 141.077 3.9547 138.037L3.95373 138.036C1.71485 134.994 0.504846 131.303 0.50265 127.524V127.523Z" stroke="#F7F8DF"/>
<path d="M97.4999 5.26316H97.5029C102.822 5.24869 108.225 7.82681 111.485 12.889H111.486L116.28 20.3124V20.3133C118.434 23.6537 122.088 25.5418 125.875 25.5442H125.876C127.077 25.5442 128.29 25.3541 129.477 24.9584L129.983 24.7766L138.216 21.5934H138.217C140.082 20.8702 141.99 20.5057 143.857 20.463L144.23 20.459C148.669 20.4633 152.816 22.2613 155.861 25.2362H155.862C158.812 28.11 160.748 32.152 160.862 36.6964L160.868 37.1374V37.1414C160.87 37.4441 160.861 37.7523 160.845 38.0665V38.0704L160.368 46.9029C160.357 47.1117 160.351 47.3191 160.351 47.5259C160.351 52.6808 163.81 57.2447 168.836 58.5842L177.363 60.8588C181.21 61.8829 184.347 64.1538 186.465 67.0432V67.0442C188.592 69.9386 189.741 73.4457 189.743 77.0385V77.0395C189.747 80.549 188.621 84.1598 186.24 87.2264L186.006 87.5218L180.442 94.3848C178.733 96.4934 177.886 99.042 177.884 101.604L177.895 102.084C177.994 104.483 178.84 106.846 180.439 108.825V108.826L186.003 115.688L186.004 115.689C188.545 118.818 189.745 122.548 189.741 126.171V126.172C189.741 129.765 188.59 133.272 186.463 136.166H186.462C184.344 139.056 181.21 141.327 177.361 142.351L168.834 144.625C163.81 145.963 160.349 150.53 160.349 155.683C160.349 155.787 160.349 155.891 160.352 155.994L160.363 156.281V156.294L160.364 156.308L160.841 165.14C160.857 165.456 160.866 165.767 160.866 166.072V166.073C160.87 170.647 159.026 174.744 156.142 177.693L155.859 177.974C152.814 180.951 148.667 182.749 144.228 182.752H144.227C142.245 182.754 140.206 182.389 138.216 181.619L129.983 178.436H129.984C128.637 177.914 127.249 177.666 125.876 177.666C122.089 177.666 118.435 179.556 116.281 182.896L111.486 190.322H111.485C108.225 195.382 102.822 197.959 97.5029 197.944H97.4999C92.1805 197.957 86.7771 195.382 83.5147 190.32L83.5137 190.319L78.719 182.894C76.5652 179.554 72.9117 177.667 69.1246 177.664H69.1227C67.9204 177.666 66.7091 177.856 65.523 178.251L65.0164 178.434L56.7843 181.617C54.794 182.387 52.7551 182.75 50.7701 182.75L50.3545 182.744C46.0726 182.633 42.0889 180.854 39.1387 177.972C36.0936 175.006 34.1277 170.795 34.1318 166.071V166.07C34.1318 165.766 34.1408 165.455 34.1592 165.137L34.6354 156.308C34.6467 156.099 34.652 155.89 34.652 155.683C34.652 150.53 31.1899 145.965 26.1657 144.625L17.6392 142.351C13.792 141.327 10.6584 139.056 8.53769 136.166H8.53671C6.40997 133.274 5.26081 129.764 5.25873 126.171L5.27242 125.49C5.40863 122.084 6.61328 118.622 8.99633 115.689L8.99731 115.688L14.5607 108.823C16.2693 106.716 17.1156 104.166 17.1179 101.605V101.604C17.1157 99.0419 16.2671 96.4911 14.5607 94.3848L8.99731 87.5218L8.76261 87.2264C6.38296 84.1596 5.25475 80.5486 5.25677 77.0346C5.25886 73.4416 6.40786 69.9338 8.53476 67.0393C10.6532 64.1498 13.7871 61.8789 17.6362 60.8569H17.6372L26.1637 58.5822C31.1901 57.2449 34.649 52.6807 34.6491 47.5259C34.6491 47.3229 34.6447 47.1135 34.6335 46.901V46.9L34.1592 38.0723C34.1425 37.7585 34.1337 37.4467 34.1337 37.1374L34.1396 36.6964C34.2539 32.1538 36.1906 28.1099 39.1407 25.2362V25.2352C42.1859 22.2584 46.3327 20.4612 50.772 20.459C52.7567 20.459 54.7956 20.8238 56.7862 21.5934L65.0184 24.7766C66.3651 25.2962 67.754 25.5442 69.1266 25.5442C72.912 25.5419 76.566 23.6535 78.7219 20.3133L83.5167 12.889C86.7768 7.82677 92.1804 5.25062 97.4999 5.26316Z" stroke="#F7F8DF"/>
</svg>
