<svg width="195" height="204" viewBox="0 0 195 204" fill="none" xmlns="http://www.w3.org/2000/svg">
<path d="M0.501953 127.346C0.495467 123.541 1.76133 119.622 4.4375 116.336V116.335L10.2861 109.135C12.0789 106.93 12.9674 104.26 12.9697 101.578V101.577C12.9673 98.8953 12.0762 96.2261 10.2861 94.0215L4.4375 86.8223L4.19043 86.5127C1.68507 83.2912 0.497875 79.4977 0.5 75.8066C0.502072 72.2687 1.56504 68.8095 3.54297 65.8857L3.95117 65.3086C6.11189 62.3682 9.27591 60.0368 13.1562 58.918L13.5342 58.8135L22.498 56.4277C27.7703 55.0283 31.4004 50.2512 31.4004 44.8545C31.4004 44.7482 31.3991 44.6403 31.3965 44.5312L31.3838 44.2002L30.8848 34.9404C30.8672 34.6109 30.8584 34.2837 30.8584 33.959V33.958C30.8542 29.1538 32.795 24.8501 35.8311 21.7529L36.1289 21.457C39.2348 18.4277 43.4295 16.5601 47.9385 16.4443L48.376 16.4385C50.4657 16.4385 52.6123 16.8225 54.708 17.6309L63.3623 20.9697H63.3633C64.7757 21.5135 66.2315 21.7724 67.6709 21.7725H67.6719C71.6419 21.7699 75.4747 19.7947 77.7363 16.2988L82.7764 8.51074H82.7773C86.2096 3.19332 91.8987 0.486831 97.5 0.5H97.5029C102.929 0.485259 108.437 3.02647 111.896 8.01953L112.226 8.51074L117.266 16.2988V16.2979C119.455 19.6851 123.12 21.6453 126.959 21.7666L127.331 21.7725C128.771 21.7725 130.227 21.5136 131.64 20.9697L140.294 17.6309H140.295C142.259 16.8712 144.268 16.4883 146.233 16.4434L146.626 16.4385C151.301 16.4429 155.667 18.3321 158.873 21.457H158.874C162.08 24.5731 164.149 28.9966 164.145 33.958L164.645 33.959L164.144 33.958L164.145 33.9619C164.147 34.2801 164.138 34.6045 164.12 34.9346L164.119 34.9473V34.9609L163.619 44.2021V44.2031C163.608 44.4217 163.6 44.6383 163.6 44.8545C163.6 50.2513 167.23 55.028 172.502 56.4297L181.466 58.8164C185.517 59.8923 188.819 62.2774 191.049 65.3125V65.3135C193.288 68.3539 194.498 72.0378 194.5 75.8115C194.504 79.6169 193.241 83.5358 190.565 86.8223H190.564L184.716 94.0215C182.924 96.2284 182.036 98.8955 182.033 101.577V101.578C182.033 104.26 182.924 106.927 184.713 109.136L184.714 109.137L190.562 116.335V116.336C193.239 119.622 194.502 123.541 194.498 127.347L194.483 128.054C194.342 131.579 193.146 134.994 191.047 137.845L191.046 137.846C188.816 140.881 185.517 143.266 181.464 144.342H181.463L172.499 146.728C167.229 148.127 163.598 152.907 163.598 158.301C163.598 158.41 163.599 158.519 163.602 158.627L163.613 158.929V158.942L163.614 158.956L164.115 168.22C164.133 168.552 164.142 168.879 164.142 169.199C164.146 174.158 162.077 178.584 158.871 181.7V181.701C155.665 184.828 151.299 186.717 146.624 186.719C144.537 186.721 142.39 186.338 140.294 185.529L131.64 182.19C130.227 181.644 128.771 181.385 127.331 181.385C123.358 181.385 119.525 183.363 117.266 186.859L112.226 194.647C108.793 199.963 103.104 202.67 97.5029 202.655H97.5C91.8987 202.668 86.209 199.963 82.7744 194.646V194.645L77.7344 186.857C75.4748 183.361 71.6414 181.385 67.6689 181.383H67.668C66.4069 181.385 65.1367 181.584 63.8926 181.998L63.3604 182.188L54.7061 185.527C52.6107 186.336 50.4641 186.717 48.374 186.717C43.6995 186.715 39.3332 184.823 36.127 181.698H36.126C32.92 178.582 30.8511 174.159 30.8555 169.197L30.8633 168.708C30.8679 168.546 30.8752 168.383 30.8848 168.218L31.3857 158.956C31.3976 158.738 31.4023 158.518 31.4023 158.301C31.4022 152.906 27.7696 148.129 22.5 146.728H22.501L13.5371 144.342H13.5361C9.48552 143.266 6.18579 140.88 3.95312 137.845L3.5459 137.268C1.56803 134.346 0.504011 130.885 0.501953 127.347V127.346Z" stroke="#F7F8DF"/>
<path d="M97.5 5.2561H97.502C102.655 5.24196 107.888 7.65763 111.174 12.4045L111.486 12.8713L116.281 20.2864V20.2854C118.435 23.6211 122.088 25.5067 125.875 25.509H125.876C127.248 25.509 128.636 25.2612 129.982 24.7424H129.983L138.215 21.5637H138.216C140.081 20.8415 141.99 20.4775 143.856 20.4348L144.229 20.4309C148.669 20.4351 152.816 22.2307 155.861 25.2014H155.862C158.812 28.0713 160.749 32.1078 160.863 36.6458L160.868 37.0862V37.0901C160.87 37.3924 160.862 37.7002 160.846 38.0139V38.0208L160.369 46.8381C160.358 47.0467 160.351 47.2538 160.351 47.4602C160.351 52.6084 163.81 57.1656 168.836 58.5032L177.363 60.7747C181.211 61.7974 184.346 64.066 186.465 66.9514H186.466C188.593 69.8418 189.741 73.3442 189.743 76.9319V76.9329C189.747 80.4376 188.622 84.0432 186.24 87.1057L186.006 87.4006L180.442 94.2542C178.734 96.3598 177.887 98.9047 177.885 101.463L177.895 101.943C177.994 104.339 178.84 106.698 180.439 108.674L180.44 108.675L186.003 115.529H186.004C188.546 118.653 189.745 122.379 189.741 125.996V125.997C189.741 129.585 188.591 133.087 186.464 135.978H186.463C184.344 138.863 181.211 141.131 177.361 142.154H177.36L168.834 144.425C163.81 145.76 160.349 150.321 160.349 155.467C160.349 155.571 160.35 155.675 160.353 155.778L160.364 156.084V156.091L160.841 164.911C160.858 165.227 160.866 165.538 160.866 165.842V165.843C160.87 170.558 158.905 174.764 155.86 177.727L155.859 177.728C152.814 180.701 148.667 182.496 144.228 182.498H144.227C142.244 182.5 140.205 182.136 138.215 181.367L129.983 178.189C128.636 177.667 127.248 177.42 125.876 177.42C122.089 177.42 118.435 179.307 116.281 182.643L111.486 190.057V190.058C108.226 195.111 102.822 197.685 97.502 197.67H97.5C92.1801 197.683 86.776 195.111 83.5137 190.056L83.5127 190.055L78.7188 182.641C76.5649 179.305 72.9109 177.42 69.124 177.418H69.123C67.9208 177.42 66.7095 177.609 65.5234 178.004L65.0166 178.187L56.7842 181.365C54.7937 182.133 52.7547 182.496 50.7695 182.496C46.33 182.494 42.1831 180.697 39.1377 177.726L39.1367 177.725C36.0917 174.763 34.1268 170.558 34.1309 165.841V165.84C34.1309 165.536 34.1398 165.226 34.1582 164.908L34.6348 156.091C34.6461 155.883 34.6504 155.674 34.6504 155.467C34.6504 150.321 31.1886 145.762 26.165 144.425L17.6387 142.154L17.2803 142.054C13.5963 140.988 10.5906 138.773 8.53613 135.978V135.977L8.14844 135.429C6.26975 132.651 5.25977 129.36 5.25781 125.996L5.27148 125.317C5.40316 122.029 6.5337 118.689 8.76172 115.823L8.99609 115.529L14.5596 108.673C16.2684 106.569 17.1149 104.022 17.1172 101.464V101.463C17.1151 99.0644 16.3685 96.6759 14.8691 94.6536L14.5596 94.2542L8.99609 87.4006C6.45604 84.276 5.25378 80.5502 5.25586 76.928C5.25795 73.3402 6.40731 69.838 8.53418 66.9475V66.9465C10.6526 64.0612 13.7864 61.7933 17.6357 60.7727H17.6367L26.1631 58.5012C31.1889 57.1659 34.6483 52.6084 34.6484 47.4602C34.6484 47.2575 34.6441 47.0484 34.6328 46.8362V46.8352L34.1582 38.0198C34.1415 37.7064 34.1328 37.395 34.1328 37.0862L34.1387 36.6458C34.2493 32.2558 36.0664 28.3322 38.8574 25.4827L39.1396 25.2014C42.1849 22.2287 46.3318 20.4332 50.7715 20.4309C52.7562 20.4309 54.7955 20.7952 56.7861 21.5637L65.0186 24.7424C66.1967 25.1964 67.407 25.4428 68.6104 25.4973L69.126 25.509C72.9108 25.5068 76.5638 23.6209 78.7197 20.2854L78.7207 20.2864L83.5156 12.8713C86.7758 7.81617 92.1799 5.24358 97.5 5.2561Z" stroke="#F7F8DF"/>
</svg>
