<svg width="140" height="81" viewBox="0 0 140 81" fill="none" xmlns="http://www.w3.org/2000/svg">
<path d="M138.122 42.3346C137.368 43.2451 136.684 44.106 136.076 44.8957C135.463 45.6838 134.929 46.41 134.469 47.0684C134.008 47.7313 133.53 48.6007 133.043 49.6737C132.551 50.7475 132.151 51.5562 131.84 52.0869C131.527 52.6139 131.15 53.5263 130.714 54.8151C130.282 56.1008 129.939 56.9831 129.703 57.4493C129.456 57.9183 129.157 58.8303 128.786 60.1909C128.411 61.5525 128.181 62.4716 128.071 62.9512C127.972 63.4328 127.694 64.4495 127.238 66.0143C126.782 67.5744 126.397 68.6243 126.086 69.155C125.675 71.0755 124.516 71.756 122.617 71.2076C120.716 70.6613 120.111 69.4416 120.796 67.5447C123.213 58.6968 125.141 52.7351 126.607 49.6464L110.256 60.7873C97.4324 69.8749 88.0556 76.3631 82.1085 80.2448L80.8409 80.5767C80.118 80.9418 79.4202 81.0291 78.7445 80.8452C76.9571 80.5841 76.2063 79.4262 76.4916 77.3635C77.4257 71.8862 76.7918 62.9596 74.6045 50.6081C73.2933 43.4479 71.7471 36.7528 69.9679 30.5277C67.5276 35.7657 64.3976 40.9559 60.5789 46.1017C53.6772 55.7413 47.1738 61.6681 41.0713 63.8776C39.7756 64.4813 38.6828 64.2639 37.7886 63.2353L36.0572 61.2435C35.0169 56.1801 31.7765 46.0351 26.3163 30.8237L19.416 13.4968L18.3196 11.3381L14.113 27.0623C10.6857 38.6094 7.8779 46.1099 5.70123 49.5645C4.48194 51.1411 3.08199 51.3931 1.49616 50.3118C-0.0916535 49.2257 -0.416557 47.8921 0.526255 46.2916C2.53346 43.2428 5.16372 36.2811 8.41055 25.4164C10.7641 17.3959 12.661 10.0468 14.0921 3.34865C14.0015 2.64856 14.1878 1.96539 14.6492 1.30946L15.3127 0.73138C16.0514 0.0877608 16.895 -0.128583 17.8522 0.0725272C19.0834 0.299641 19.7985 0.967727 19.9976 2.09419C20.5117 2.68566 21.0679 3.62462 21.6727 4.91619C22.5294 6.50256 23.5608 8.57907 24.7716 11.1611C26.7968 15.8742 29.092 21.793 31.6455 28.9038C36.3405 41.1558 39.5566 50.6644 41.3113 57.4447C45.7789 54.8454 50.6318 49.8446 55.8517 42.4364C61.8063 34.3924 65.621 27.3123 67.2951 21.1902C67.8515 19.1452 69.0043 18.3946 70.7772 18.9332C72.1291 19.309 72.8332 20.1191 72.8929 21.367C75.7188 28.4921 78.1811 37.8914 80.2904 49.5449C81.9895 58.9539 82.7734 66.7016 82.629 72.7908C87.693 69.6783 95.8253 64.1444 107.047 56.1856C114.63 50.6112 120.742 46.3255 125.386 43.3185C118.049 43.2274 112.09 41.2888 107.506 37.5047C106.075 36.1545 105.959 34.76 107.169 33.3173C108.378 31.8803 109.706 31.693 111.155 32.7671C112.073 33.5258 112.961 34.1689 113.822 34.7183C114.687 35.2646 115.522 35.7008 116.331 36.0354C117.14 36.3701 118.155 36.6484 119.388 36.8721L122.255 37.4925C122.804 37.5283 123.849 37.5267 125.373 37.4923L128.489 37.5057L132.243 37.3467C133.908 37.1886 135.097 37.0624 135.792 36.975C137.211 36.5178 138.358 36.9421 139.24 38.2529C140.223 39.985 139.852 41.348 138.122 42.3346Z" fill="black"/>
</svg>
