<svg width="672" height="533" viewBox="0 0 672 533" fill="none" xmlns="http://www.w3.org/2000/svg">
<path d="M337 372.763V353.523C323.324 354.985 323.359 332.978 337 334.441V315.295C322.21 315.295 324.368 294.846 337 296.213V277.068C323.254 278.531 323.393 256.523 337 257.986V238.873C324.229 240.24 322.245 219.791 337 219.791V200.645C323.359 202.108 323.359 180.101 337 181.564V162.418C322.21 162.418 324.368 141.969 337 143.336V124.191C324.298 125.558 322.175 105.109 337 105.109V85.9954C323.324 87.4584 323.359 65.4507 337 66.9136V47.7682C323.324 49.2311 323.359 27.2234 337 28.6863V9.57271C332.024 10.1134 326.56 5.53373 326.56 0H305.332C305.332 12.5622 284.452 12.6258 284.452 0H263.19C263.19 12.594 242.31 12.6258 242.31 0H221.082C221.082 12.5622 200.202 12.6258 200.202 0H178.94C178.94 12.594 158.06 12.6258 158.06 0H136.832C136.832 12.5622 115.952 12.6258 115.952 0H94.6899C94.6899 12.594 73.8101 12.6258 73.8101 0H52.5823C52.5823 12.5622 31.7025 12.6258 31.7025 0H10.4399C10.4399 5.05668 6.02034 9.50911 0 9.50911V28.6545C13.7807 28.6545 13.7807 47.7364 0 47.7364V66.8818C13.7807 66.8818 13.7807 85.9636 0 85.9636V105.109C13.8155 105.109 13.7807 124.191 0 124.191V143.304C13.7807 143.304 13.8155 162.386 0 162.386V181.532C13.7807 181.532 13.7807 200.614 0 200.614V219.759C13.8155 219.759 13.7807 238.841 0 238.841V257.954C13.7807 257.954 13.8155 277.036 0 277.036V296.182C13.7807 296.182 13.7807 315.263 0 315.263V334.409C13.7807 334.409 13.7807 353.491 0 353.491V372.668C5.98554 372.636 10.4051 377.025 10.4399 382.145H31.7025C31.7025 369.519 52.5823 369.551 52.5823 382.145H73.8101C73.8101 369.551 94.6899 369.519 94.6899 382.145H115.952C115.952 369.488 136.832 369.551 136.832 382.145H158.06C158.06 369.551 178.94 369.551 178.94 382.145H200.202C200.202 369.519 221.082 369.551 221.082 382.145H242.31C242.31 369.551 263.19 369.551 263.19 382.145H284.452C284.452 369.519 305.332 369.551 305.332 382.145H326.56C326.56 377.12 330.771 372.732 337 372.732V372.763Z" fill="#247DA6"/>
<path d="M333 523.397V504.157C319.486 505.619 319.52 483.612 333 485.075V465.929C318.386 465.929 320.518 445.48 333 446.847V427.702C319.417 429.165 319.555 407.157 333 408.62V389.507C320.38 390.874 318.42 370.425 333 370.425V351.279C319.52 352.742 319.52 330.735 333 332.198V313.052C318.386 313.052 320.518 292.603 333 293.97V274.825C320.449 276.192 318.351 255.743 333 255.743V236.629C319.486 238.092 319.52 216.085 333 217.548V198.402C319.486 199.865 319.52 177.857 333 179.32V160.207C328.083 160.747 322.684 156.168 322.684 150.634H301.708C301.708 163.196 281.076 163.26 281.076 150.634H260.066C260.066 163.228 239.434 163.26 239.434 150.634H218.458C218.458 163.196 197.826 163.26 197.826 150.634H176.816C176.816 163.228 156.184 163.26 156.184 150.634H135.208C135.208 163.196 114.576 163.26 114.576 150.634H93.566C93.566 163.228 72.934 163.26 72.934 150.634H51.9582C51.9582 163.196 31.3262 163.26 31.3262 150.634H10.316C10.316 155.691 5.94888 160.143 0 160.143V179.289C13.6171 179.289 13.6171 198.37 0 198.37V217.516C13.6171 217.516 13.6171 236.598 0 236.598V255.743C13.6515 255.743 13.6171 274.825 0 274.825V293.938C13.6171 293.938 13.6515 313.02 0 313.02V332.166C13.6171 332.166 13.6171 351.248 0 351.248V370.393C13.6515 370.393 13.6171 389.475 0 389.475V408.588C13.6171 408.588 13.6515 427.67 0 427.67V446.816C13.6171 446.816 13.6171 465.897 0 465.897V485.043C13.6171 485.043 13.6171 504.125 0 504.125V523.302C5.9145 523.27 10.2816 527.659 10.316 532.779H31.3262C31.3262 520.153 51.9582 520.185 51.9582 532.779H72.934C72.934 520.185 93.566 520.153 93.566 532.779H114.576C114.576 520.122 135.208 520.185 135.208 532.779H156.184C156.184 520.185 176.816 520.185 176.816 532.779H197.826C197.826 520.153 218.458 520.185 218.458 532.779H239.434C239.434 520.185 260.066 520.185 260.066 532.779H281.076C281.076 520.153 301.708 520.185 301.708 532.779H322.684C322.684 527.754 326.845 523.366 333 523.366V523.397Z" fill="#247DA6"/>
<path d="M672 372.763V353.523C658.405 354.985 658.439 332.978 672 334.441V315.295C657.298 315.295 659.443 294.846 672 296.213V277.068C658.336 278.531 658.474 256.523 672 257.986V238.873C659.304 240.24 657.333 219.791 672 219.791V200.645C658.439 202.108 658.439 180.101 672 181.564V162.418C657.298 162.418 659.443 141.969 672 143.336V124.191C659.373 125.558 657.263 105.109 672 105.109V85.9954C658.405 87.4584 658.439 65.4507 672 66.9136V47.7682C658.405 49.2311 658.439 27.2234 672 28.6863V9.57271C667.053 10.1134 661.622 5.53373 661.622 0H640.52C640.52 12.5622 619.764 12.6258 619.764 0H598.628C598.628 12.594 577.872 12.6258 577.872 0H556.77C556.77 12.5622 536.014 12.6258 536.014 0H514.878C514.878 12.594 494.122 12.6258 494.122 0H473.02C473.02 12.5622 452.264 12.6258 452.264 0H431.128C431.128 12.594 410.372 12.6258 410.372 0H389.27C389.27 12.5622 368.514 12.6258 368.514 0H347.378C347.378 5.05668 342.985 9.50911 337 9.50911V28.6545C350.699 28.6545 350.699 47.7364 337 47.7364V66.8818C350.699 66.8818 350.699 85.9636 337 85.9636V105.109C350.733 105.109 350.699 124.191 337 124.191V143.304C350.699 143.304 350.733 162.386 337 162.386V181.532C350.699 181.532 350.699 200.614 337 200.614V219.759C350.733 219.759 350.699 238.841 337 238.841V257.954C350.699 257.954 350.733 277.036 337 277.036V296.182C350.699 296.182 350.699 315.263 337 315.263V334.409C350.699 334.409 350.699 353.491 337 353.491V372.668C342.95 372.636 347.343 377.025 347.378 382.145H368.514C368.514 369.519 389.27 369.551 389.27 382.145H410.372C410.372 369.551 431.128 369.519 431.128 382.145H452.264C452.264 369.488 473.02 369.551 473.02 382.145H494.122C494.122 369.551 514.878 369.551 514.878 382.145H536.014C536.014 369.519 556.77 369.551 556.77 382.145H577.872C577.872 369.551 598.628 369.551 598.628 382.145H619.764C619.764 369.519 640.52 369.551 640.52 382.145H661.622C661.622 377.12 665.808 372.732 672 372.732V372.763Z" fill="#247DA6"/>
<path d="M672 523.397V504.157C657.228 505.619 657.266 483.612 672 485.075V465.929C656.025 465.929 658.356 445.48 672 446.847V427.702C657.153 429.165 657.303 407.157 672 408.62V389.507C658.205 390.874 656.063 370.425 672 370.425V351.279C657.266 352.742 657.266 330.735 672 332.198V313.052C656.025 313.052 658.356 292.603 672 293.97V274.825C658.28 276.192 655.988 255.743 672 255.743V236.629C657.228 238.092 657.266 216.085 672 217.548V198.402C657.228 199.865 657.266 177.857 672 179.32V160.207C666.625 160.747 660.724 156.168 660.724 150.634H637.795C637.795 163.196 615.242 163.26 615.242 150.634H592.276C592.276 163.228 569.724 163.26 569.724 150.634H546.795C546.795 163.196 524.242 163.26 524.242 150.634H501.276C501.276 163.228 478.724 163.26 478.724 150.634H455.795C455.795 163.196 433.242 163.26 433.242 150.634H410.276C410.276 163.228 387.724 163.26 387.724 150.634H364.795C364.795 163.196 342.242 163.26 342.242 150.634H319.276C319.276 155.691 314.503 160.143 308 160.143V179.289C322.885 179.289 322.885 198.37 308 198.37V217.516C322.885 217.516 322.885 236.598 308 236.598V255.743C322.922 255.743 322.885 274.825 308 274.825V293.938C322.885 293.938 322.922 313.02 308 313.02V332.166C322.885 332.166 322.885 351.248 308 351.248V370.393C322.922 370.393 322.885 389.475 308 389.475V408.588C322.885 408.588 322.922 427.67 308 427.67V446.816C322.885 446.816 322.885 465.897 308 465.897V485.043C322.885 485.043 322.885 504.125 308 504.125V523.302C314.465 523.27 319.239 527.659 319.276 532.779H342.242C342.242 520.153 364.795 520.185 364.795 532.779H387.724C387.724 520.185 410.276 520.153 410.276 532.779H433.242C433.242 520.122 455.795 520.185 455.795 532.779H478.724C478.724 520.185 501.276 520.185 501.276 532.779H524.242C524.242 520.153 546.795 520.185 546.795 532.779H569.724C569.724 520.185 592.276 520.185 592.276 532.779H615.242C615.242 520.153 637.795 520.185 637.795 532.779H660.724C660.724 527.754 665.272 523.366 672 523.366V523.397Z" fill="#247DA6"/>
</svg>
