<svg width="1445" height="1556" viewBox="0 0 1445 1556" fill="none" xmlns="http://www.w3.org/2000/svg">
<path d="M857.901 1281.73L847.61 1276.55L824.378 1289.36L801.211 1281.55L734.141 1304.53L721.282 1296.76L695.465 1312.14L697.918 1350.8L679.848 1361.05L659.266 1350.68L656.797 1317.17L646.506 1311.98L610.406 1319.6L610.357 1335.06L566.445 1368.42L533.004 1350.28L396.411 1357.57L388.606 1380.74L434.922 1401.51L434.815 1435.01L367.605 1501.8L336.634 1517.16L341.664 1555.84L393.2 1556L411.27 1545.75L465.366 1551.08L498.93 1530.57L529.827 1538.4L550.548 1504.96L625.381 1471.7L612.572 1448.46L620.401 1417.56L661.654 1409.96L666.873 1389.36L684.944 1379.11L728.691 1397.29L762.272 1371.63L788.015 1379.44L790.534 1397.49L772.455 1410.32L769.829 1425.77L733.68 1448.85L733.631 1464.31L712.984 1474.55L712.951 1484.86L725.81 1492.63L725.761 1508.1L782.367 1534.05L821.052 1523.86L842.045 1405.38L826.609 1397.6L826.65 1384.72L795.77 1371.73L795.819 1356.27L813.898 1343.44L819.109 1325.42L852.648 1312.64L857.901 1281.73Z" fill="#F4EDE3" fill-opacity="0.1"/>
<path d="M1440.58 1183.09L1267.83 1213.46L1254.81 1257.23L1257.35 1270.13L1272.78 1277.91L1272.67 1311.41L1249.41 1334.53L1221.12 1316.4L1197.92 1318.9L1177.35 1305.95L1185.24 1257.01L1180.13 1241.53L1156.99 1226L1079.66 1236.06L1061.58 1246.31L1035.83 1241.07L999.709 1256.42L963.651 1251.15L948.165 1258.83L948.116 1274.29L935.191 1287.14L927.312 1333.5L932.359 1367.02L922.035 1372.14L919.335 1410.79L986.274 1429.04L988.752 1459.98L1019.64 1470.38L1055.74 1462.77L1055.8 1444.73L1071.29 1434.47L1071.39 1403.54L1104.98 1375.3L1141.03 1383.15L1159 1403.82L1158.9 1434.75L1192.35 1450.32L1238.76 1440.16L1238.83 1419.54L1262.08 1401.58L1287.81 1414.54L1303.2 1435.21L1367.64 1430.26L1385.71 1420.01L1439.81 1422.76L1440.58 1183.09Z" fill="#F4EDE3" fill-opacity="0.1"/>
<path d="M202.734 681.749L189.833 686.862L171.829 676.496L161.505 681.618L161.464 694.503L151.14 699.624L138.183 722.777L138.125 740.817L125.216 748.507L117.428 766.522L117.379 781.984L109.632 787.114L104.355 825.754L81.0489 861.759L1.03716 902.738L-1.15121e-05 1227.45L12.9086 1219.76L12.9415 1209.45L23.2651 1204.33L25.8748 1194.03L49.0987 1183.8L46.6289 1150.29L87.9397 1124.65L85.4616 1093.71L116.432 1078.35L126.797 1060.34L129.448 1037.16L137.195 1032.03L173.665 908.443L178.934 872.38L212.679 795.174L212.744 774.558L225.653 766.868L246.382 730.854L246.424 717.969L225.842 707.594L225.883 694.709L202.734 681.749Z" fill="#F4EDE3" fill-opacity="0.1"/>
<path d="M682.179 631.735L633.311 603.231L610.095 610.888L594.561 634.033L563.615 641.665L450.409 587.184L396.206 615.359L367.714 661.656L367.64 684.85L352.13 700.263L344.292 733.741L351.858 785.308L287.364 808.296L279.576 826.311L297.441 880.487L250.985 903.533L211.897 1040L211.765 1081.23L237.467 1101.93L332.899 1073.88L356.172 1048.19L389.588 1074.07L399.936 1061.21L400.018 1035.44L420.665 1025.2L420.707 1012.31L400.125 1001.94L387.217 1009.63L381.956 1043.12L363.894 1050.79L345.889 1040.42L345.988 1009.5L358.897 1001.81L372.061 914.228L338.604 901.236L336.084 883.188L359.308 872.954L405.625 893.719L447.034 837.154L493.507 808.954L609.478 804.17L625.087 757.832L622.823 659.894L643.478 647.074L666.636 657.457L679.545 649.767L682.179 631.735Z" fill="#F4EDE3" fill-opacity="0.1"/>
<path d="M1444.35 0.197343L1382.51 -0.00018886L1175.68 215.818L1106.19 189.824L1018.43 233.355L1108.11 393.423L1033.28 426.687L1048.54 488.587L1014.94 519.405L973.732 514.119L930.265 408.318L845.256 400.315L754.476 585.578L795.539 637.252L769.549 706.751L877.56 774.101L864.454 843.642L941.551 908.316L681.33 897.176L681.067 979.643L714.458 1013.25L660.098 1090.39L665.112 1134.22L502.75 1141.43L394.69 1089.54L348.127 1146.09L407.196 1208.13L409.599 1262.26L605.525 1234.54L654.739 1154.8L695.762 1219.36L1113.43 1148.54L1110.96 1115.03L1025.98 1099.29L1046.71 1060.7L969.88 913.561L1137.81 777.509L1287.16 808.912L1312.78 855.382L1292.02 901.704L1325.44 925.005L1410.53 907.237L1415.52 958.795L1338.18 971.434L1358.62 1025.62L1288.9 1071.78L1283.62 1110.42L1440.9 1080L1443.22 355.837L1324.9 288.454L1443.89 144.515L1444.35 0.197343Z" fill="#F4EDE3" fill-opacity="0.1"/>
</svg>
