<svg width="176" height="23" viewBox="0 0 176 23" fill="none" xmlns="http://www.w3.org/2000/svg">
<path d="M17.0376 4.79907H5.87785C3.68741 4.79907 1.91307 6.55429 1.91307 8.71985V14.2371C1.91307 16.4026 3.68837 18.1588 5.87785 18.1588H17.0376C19.228 18.1588 21.0024 16.4026 21.0024 14.2371V8.71985C21.0024 6.55429 19.2271 4.79811 17.0376 4.79811V4.79907ZM14.3565 11.7463L9.13672 14.2093C9.10488 14.2247 9.06969 14.2317 9.0344 14.2298C8.99912 14.2278 8.9649 14.217 8.93492 14.1983C8.90495 14.1796 8.88019 14.1536 8.86296 14.1227C8.84573 14.0919 8.83658 14.0572 8.83637 14.0219V8.94368C8.83701 8.90817 8.84663 8.87339 8.86432 8.8426C8.88202 8.8118 8.90723 8.78599 8.93759 8.76756C8.96795 8.74913 9.00249 8.73869 9.03798 8.73721C9.07346 8.73572 9.10875 8.74324 9.14055 8.75907L14.3612 11.3752C14.396 11.3925 14.4252 11.4193 14.4454 11.4525C14.4657 11.4856 14.4761 11.5238 14.4756 11.5627C14.4751 11.6016 14.4637 11.6395 14.4426 11.6721C14.4215 11.7048 14.3917 11.7308 14.3565 11.7472V11.7463Z" fill="#F7F8DF"/>
<path d="M46.914 5.60953V8.23805H44.9876V11.452H46.914V21.0038H50.8683V11.4529H53.5226C53.5226 11.4529 53.7713 9.91197 53.8919 8.22658H50.8846V6.02849C50.8846 5.7004 51.315 5.25849 51.7416 5.25849H53.8976V1.91258H50.9668C46.8155 1.91258 46.914 5.12936 46.914 5.60953Z" fill="#F7F8DF"/>
<path d="M97.5642 5.65061C96.8472 5.96375 96.0878 6.16908 95.3106 6.25992C96.1263 5.78092 96.7397 5.02132 97.0362 4.12305C96.2633 4.57292 95.4204 4.8898 94.5426 5.06044C94.1729 4.67324 93.7283 4.36542 93.2357 4.15574C92.7432 3.94606 92.2131 3.83893 91.6778 3.84087C89.5103 3.84087 87.7532 5.57218 87.7532 7.70522C87.7532 8.00748 87.7876 8.30305 87.8546 8.58522C86.2998 8.51128 84.7775 8.11404 83.3849 7.41887C81.9922 6.7237 80.7598 5.74586 79.7662 4.54774C79.4179 5.13543 79.2348 5.80631 79.2363 6.48948C79.237 7.1284 79.3968 7.75709 79.7014 8.31873C80.0061 8.88036 80.4458 9.35724 80.981 9.70626C80.3588 9.68618 79.75 9.52005 79.2038 9.22131V9.26913C79.2038 11.142 80.5573 12.704 82.3507 13.0598C82.0137 13.1493 81.6664 13.1946 81.3177 13.1947C81.0642 13.1947 80.8184 13.1708 80.5783 13.123C80.8347 13.8958 81.3254 14.5695 81.9823 15.0507C82.6392 15.5318 83.4295 15.7965 84.2437 15.8079C82.8472 16.8836 81.1329 17.4647 79.3702 17.4598C79.0526 17.4598 78.7408 17.4407 78.4338 17.4063C80.2332 18.5452 82.3197 19.1484 84.4493 19.1452C91.6682 19.1452 95.6148 13.2559 95.6148 8.14905L95.6014 7.64878C96.3713 7.10708 97.0363 6.43003 97.5642 5.65061Z" fill="#F7F8DF"/>
<path d="M130.103 1.91258H122.384C120.875 1.91435 119.429 2.51436 118.363 3.58098C117.296 4.64759 116.697 6.09368 116.695 7.60197V15.3211C116.697 16.8294 117.297 18.2754 118.364 19.3418C119.43 20.4082 120.876 21.008 122.385 21.0095H130.104C131.612 21.0078 133.058 20.4077 134.124 19.3411C135.191 18.2745 135.791 16.8284 135.792 15.3201V7.60101C135.79 6.09272 135.19 4.64673 134.124 3.5803C133.057 2.51387 131.611 1.9141 130.103 1.91258V1.91258ZM133.871 15.3201C133.871 15.8151 133.774 16.3051 133.584 16.7624C133.395 17.2196 133.118 17.6351 132.768 17.985C132.418 18.335 132.002 18.6126 131.545 18.802C131.088 18.9914 130.598 19.0888 130.103 19.0888H122.384C121.384 19.0886 120.426 18.6914 119.719 17.9847C119.013 17.2779 118.616 16.3195 118.616 15.3201V7.60101C118.616 6.60166 119.013 5.64332 119.72 4.93676C120.427 4.2302 121.385 3.83327 122.385 3.83327H130.104C131.103 3.83353 132.061 4.2307 132.768 4.93744C133.474 5.64418 133.871 6.60261 133.871 7.60197V15.3211V15.3201Z" fill="#F7F8DF"/>
<path d="M126.243 6.52238C124.934 6.5244 123.679 7.04539 122.754 7.97113C121.828 8.89687 121.307 10.1518 121.306 11.4609C121.307 12.7703 121.828 14.0256 122.754 14.9516C123.679 15.8776 124.935 16.3986 126.244 16.4004C127.554 16.3989 128.809 15.878 129.735 14.952C130.661 14.026 131.182 12.7705 131.184 11.4609C131.182 10.1515 130.66 8.89635 129.734 7.97074C128.808 7.04512 127.552 6.5246 126.243 6.52333V6.52238ZM126.243 14.4797C125.443 14.4797 124.675 14.1617 124.109 13.5958C123.543 13.0298 123.225 12.2622 123.225 11.4619C123.225 10.6615 123.543 9.89388 124.109 9.32793C124.675 8.76198 125.443 8.44403 126.243 8.44403C127.043 8.44403 127.811 8.76198 128.377 9.32793C128.943 9.89388 129.261 10.6615 129.261 11.4619C129.261 12.2622 128.943 13.0298 128.377 13.5958C127.811 14.1617 127.043 14.4797 126.243 14.4797Z" fill="#F7F8DF"/>
<path d="M131.192 7.74323C131.846 7.74323 132.375 7.21348 132.375 6.56001C132.375 5.90654 131.846 5.37679 131.192 5.37679C130.539 5.37679 130.009 5.90654 130.009 6.56001C130.009 7.21348 130.539 7.74323 131.192 7.74323Z" fill="#F7F8DF"/>
<path d="M174.048 13.1227V20.1809H169.956V13.5952C169.956 11.9404 169.364 10.8117 167.883 10.8117C166.752 10.8117 166.079 11.5731 165.783 12.3087C165.675 12.5717 165.647 12.9381 165.647 13.3063V20.1809H161.554C161.554 20.1809 161.609 9.02782 161.554 7.87138H165.647V9.61608L165.621 9.65625H165.647V9.61608C166.191 8.77912 167.162 7.58251 169.336 7.58251C172.028 7.58251 174.048 9.34251 174.048 13.1227ZM157.272 1.93808C155.873 1.93808 154.956 2.85634 154.956 4.06443C154.956 5.24573 155.846 6.19173 157.219 6.19173H157.245C158.673 6.19173 159.56 5.24573 159.56 4.06443C159.535 2.85634 158.674 1.93808 157.273 1.93808H157.272ZM155.199 20.1809H159.291V7.87138H155.199V20.1809Z" fill="#F7F8DF"/>
</svg>
