<svg width="301" height="71" viewBox="0 0 301 71" fill="none" xmlns="http://www.w3.org/2000/svg">
<path d="M88.6211 43.1906C88.6211 44.635 88.2926 45.3573 86.3254 46.1133C84.6485 46.7637 82.4978 47.2326 80.1637 47.2326C73.2382 47.2326 67.6227 43.1568 67.6227 35.1066C67.6227 26.5201 74.0404 23.0525 80.2747 23.0525C82.5362 23.0525 84.9045 23.5213 86.6199 24.4252C87.7507 25.0038 88.3352 25.6162 88.3352 26.5201C88.3352 27.4957 87.644 29.0458 86.3681 29.0458C85.6384 29.0458 84.9472 28.5769 83.8505 28.1419C82.7581 27.7111 81.5164 27.3859 80.0613 27.3859C76.3788 27.3859 72.6622 29.4808 72.6622 35.0348C72.6622 40.5888 76.0886 42.9372 80.2107 42.9372C82.2888 42.9372 83.7097 42.2867 83.7097 42.2867V39.402C83.7097 38.57 83.7097 37.9956 84.0724 37.5267C84.401 37.0917 84.9856 36.7707 86.1889 36.7707C87.0636 36.7707 87.8317 36.9523 88.267 37.5267C88.6297 37.9956 88.6297 38.5742 88.6297 39.402V43.1906H88.6211Z" fill="white"/>
<path d="M109.65 41.526C110.815 40.1533 110.815 38.316 110.815 36.8716V25.9367C110.815 25.1089 110.815 24.4922 111.177 24.0234C111.54 23.5166 112.236 23.2674 113.256 23.2674C114.275 23.2674 114.967 23.5208 115.334 24.0234C115.696 24.4922 115.696 25.1046 115.696 25.9367V36.6181C115.696 38.9622 115.696 41.8512 113.58 44.2671C111.975 46.1086 109.462 47.3334 105.306 47.3334C101.15 47.3334 98.598 46.0325 97.0661 44.2671C94.9496 41.8512 94.9496 39.1439 94.9496 36.6181V25.9367C94.9496 25.1089 94.9496 24.4922 95.3123 24.0234C95.6793 23.5166 96.3322 23.2674 97.4288 23.2674C98.5255 23.2674 99.1399 23.5208 99.5069 24.0234C99.8696 24.4922 99.8696 25.1046 99.8696 25.9367V36.8716C99.8696 38.316 99.8696 40.1533 101.035 41.526C101.909 42.5734 103.33 43.152 105.336 43.152C107.341 43.152 108.762 42.5734 109.637 41.526H109.65Z" fill="white"/>
<path d="M134.949 42.5354C135.751 42.5354 136.336 42.5354 136.81 42.8986C137.283 43.2238 137.539 43.7645 137.539 44.7021C137.539 45.6397 137.283 46.1803 136.81 46.5056C136.336 46.8688 135.751 46.8688 134.949 46.8688H125.651C123.902 46.8688 123.317 46.1846 123.317 44.5585V25.9367C123.317 25.1089 123.317 24.4922 123.68 24.0234C124.047 23.5166 124.772 23.2674 125.796 23.2674C126.82 23.2674 127.512 23.5208 127.874 24.0234C128.237 24.4922 128.237 25.1046 128.237 25.9367V42.5354H134.945H134.949Z" fill="white"/>
<path d="M154.345 42.5354C155.148 42.5354 155.732 42.5354 156.206 42.8986C156.679 43.2238 156.935 43.7645 156.935 44.7021C156.935 45.6397 156.679 46.1803 156.206 46.5056C155.732 46.8688 155.148 46.8688 154.345 46.8688H145.047C143.298 46.8688 142.713 46.1846 142.713 44.5585V25.9367C142.713 25.1089 142.713 24.4922 143.076 24.0234C143.443 23.5166 144.168 23.2674 145.192 23.2674C146.216 23.2674 146.908 23.5208 147.27 24.0234C147.633 24.4922 147.633 25.1046 147.633 25.9367V42.5354H154.341H154.345Z" fill="white"/>
<path d="M172.604 25.4341C173.368 24.1712 173.952 23.2674 176.103 23.2674C177.78 23.2674 178.326 23.846 178.326 24.64C178.326 25.1807 178.036 25.6875 177.562 26.4097L170.052 37.9908V44.3769C170.052 45.2427 170.052 45.8551 169.69 46.324C169.361 46.759 168.815 47.08 167.611 47.08C166.553 47.08 165.862 46.8266 165.495 46.324C165.132 45.8551 165.132 45.2427 165.132 44.4107V38.0246L157.951 26.5491C157.439 25.7551 157.149 25.2144 157.149 24.6738C157.149 23.808 157.912 23.2674 159.589 23.2674C161.595 23.2674 162.286 24.0614 163.127 25.4679L167.757 33.48L172.604 25.4341Z" fill="white"/>
<path d="M180.736 47.1988C178.987 47.1988 177.895 46.0458 177.895 44.3859C177.895 42.7261 178.987 41.573 180.736 41.573C182.486 41.573 183.544 42.6923 183.544 44.3859C183.544 46.0796 182.452 47.1988 180.736 47.1988Z" fill="white"/>
<path d="M195.644 44.3774C195.644 45.2432 195.644 45.8557 195.281 46.3245C194.914 46.8271 194.189 47.0805 193.203 47.0805C192.217 47.0805 191.454 46.8271 191.087 46.3245C190.72 45.8557 190.72 45.2432 190.72 44.3774V27.8885H185.945C185.143 27.8885 184.558 27.8885 184.084 27.5295C183.611 27.2043 183.355 26.6637 183.355 25.688C183.355 24.7124 183.611 24.2436 184.084 23.9183C184.558 23.5593 185.143 23.5213 185.945 23.5213H200.453C201.217 23.5213 201.801 23.5593 202.275 23.9183C202.749 24.2436 203.005 24.7504 203.005 25.688C203.005 26.6257 202.749 27.2043 202.275 27.5295C201.801 27.8885 201.217 27.8885 200.453 27.8885H195.64V44.3774H195.644Z" fill="white"/>
<path d="M217.775 22.9861C225.323 22.9861 230.098 28.1473 230.098 35.1458C230.098 42.1443 225.178 47.3773 217.591 47.3773C210.005 47.3773 205.268 42.2161 205.268 35.2176C205.268 28.2191 210.192 22.9861 217.775 22.9861ZM217.702 43.2297C222.26 43.2297 225.067 40.269 225.067 35.2176C225.067 30.1662 222.226 27.1336 217.668 27.1336C213.111 27.1336 210.303 30.0944 210.303 35.1458C210.303 40.1972 213.145 43.2297 217.702 43.2297Z" fill="white"/>
<path d="M250.761 41.526C251.926 40.1533 251.926 38.316 251.926 36.8716V25.9367C251.926 25.1089 251.926 24.4922 252.289 24.0234C252.652 23.5166 253.347 23.2674 254.367 23.2674C255.387 23.2674 256.078 23.5208 256.445 24.0234C256.808 24.4922 256.808 25.1046 256.808 25.9367V36.6181C256.808 38.9622 256.808 41.8512 254.691 44.2671C253.087 46.1086 250.574 47.3334 246.418 47.3334C242.261 47.3334 239.71 46.0325 238.178 44.2671C236.061 41.8512 236.061 39.1439 236.061 36.6181V25.9367C236.061 25.1089 236.061 24.4922 236.424 24.0234C236.791 23.5166 237.444 23.2674 238.54 23.2674C239.637 23.2674 240.256 23.5208 240.619 24.0234C240.981 24.4922 240.981 25.1046 240.981 25.9367V36.8716C240.981 38.316 240.981 40.1533 242.146 41.526C243.021 42.5734 244.442 43.152 246.447 43.152C248.453 43.152 249.874 42.5734 250.749 41.526H250.761Z" fill="white"/>
<path d="M269.169 44.3769C269.169 45.2427 269.204 45.8551 268.841 46.324C268.478 46.8266 267.821 47.08 266.835 47.08C265.85 47.08 265.158 46.8266 264.791 46.324C264.429 45.8551 264.429 45.2427 264.429 44.3769V26.5153C264.429 25.3243 264.429 24.243 266.362 23.7024C267.236 23.449 268.657 23.2674 270.59 23.2674C272.523 23.2674 274.674 23.449 276.496 24.3486C278.792 25.4679 280.14 27.4867 280.14 30.3039C280.14 33.2646 278.681 35.4989 276.022 36.7617L281.783 44.5205C282.624 45.6735 282.257 47.0842 279.743 47.0842C277.883 47.0842 277.226 46.2902 276.351 44.9893L273.035 40.1153C272.161 38.8524 271.649 37.805 271.649 37.805C271.649 37.805 271.175 37.843 270.411 37.843C269.647 37.843 269.174 37.805 269.174 37.805V44.3727L269.169 44.3769ZM269.169 34.0206C269.169 34.0206 269.677 34.0544 270.262 34.0544C273.36 34.0544 275.148 33.045 275.148 30.5911C275.148 28.1372 273.287 27.3431 270.992 27.3431C269.972 27.3431 269.169 27.4867 269.169 27.4867V34.0164V34.0206Z" fill="white"/>
<path d="M297.317 34.1424C299.323 35.4052 301 37.2467 301 40.2412C301 44.752 297.207 47.2777 292.978 47.2777C291.228 47.2777 289.368 46.8427 287.874 46.0867C286.816 45.5461 285.941 44.7858 285.941 43.7426C285.941 42.6994 286.705 41.3985 287.909 41.3985C289.257 41.3985 290.388 43.1682 292.828 43.1682C294.723 43.1682 296.071 42.1207 296.071 40.4609C296.071 38.801 294.612 37.8253 293.08 37.0313C290.746 35.8065 286.411 34.1466 286.411 29.6696C286.411 25.6994 289.765 23.0681 294.138 23.0681C297.347 23.0681 300.556 24.4746 300.556 26.3161C300.556 27.3255 299.643 28.5884 298.512 28.5884C297.309 28.5884 296.106 27.1819 294.1 27.1819C292.423 27.1819 291.331 28.1195 291.331 29.4204C291.331 31.6589 294.757 32.5585 297.309 34.1466L297.317 34.1424Z" fill="white"/>
<path d="M30.1237 34.8646C32.4578 33.9735 35.0949 33.851 37.3735 34.9364C38.7176 35.5784 40.1002 36.4527 41.551 36.8202C42.6348 37.0947 43.8382 37.0524 44.8025 36.4907C46.0656 35.7558 46.919 34.493 47.6231 33.2554C51.1008 27.1101 53.5842 20.2975 55.2314 13.4637C55.9184 10.6128 56.5883 6.12732 53.836 4.31118C50.9984 2.43591 46.5435 2.43591 43.6675 2.44858C43.0573 2.44858 42.3916 2.06001 41.8454 1.81926C41.7259 1.76858 41.6107 1.7179 41.4913 1.66299C40.6848 1.31243 39.8783 0.970322 39.0249 0.759142C37.3607 0.34523 35.6496 0.134051 33.9342 0.0538026C29.2617 -0.1616 24.2479 0.231193 19.8655 1.93752C11.869 5.05453 6.0401 11.0309 2.80136 18.8699C0.88543 23.4989 0.0448087 28.487 0.00213759 33.4793C-0.0490677 39.7555 0.812889 46.0783 3.32195 51.8815C5.40003 56.6879 8.79239 60.9369 12.9699 64.1257C15.0864 65.7391 17.4162 67.0864 19.8954 68.0705C22.3917 69.063 25.3104 69.9753 27.9859 70.2076C35.1546 70.8285 43.42 69.0124 48.0455 63.15C50.2772 60.3202 51.1947 56.7808 51.0411 53.2246C50.9728 51.6323 50.4693 49.8795 50.8192 48.3168C51.1776 46.716 52.462 45.3603 51.4294 43.7342C51.0539 43.1471 50.4949 42.6318 49.8036 42.522C48.8776 42.3742 48.0199 42.9697 47.2263 43.4681C45.2506 44.7056 43.0914 45.2335 40.753 45.0393C39.2937 44.921 37.1644 44.6338 37.1559 46.7414C37.1559 47.3115 37.4204 47.8775 37.86 48.2407C38.1885 48.511 38.5982 48.6673 38.9737 48.8701C40.4629 49.6683 40.9451 51.6196 40.864 53.1654C40.7915 54.5381 40.1386 55.9572 38.9779 56.7217C37.8642 57.4608 36.503 57.7818 35.1802 57.8832C32.9784 58.0564 30.7467 57.4946 28.8435 56.4049C27.6957 55.7461 26.7356 54.9774 25.9376 54.0904C25.5664 54.2931 24.9605 54.5803 24.8751 54.6141C24.4143 54.8169 23.9364 54.9816 23.4499 55.1125C21.1499 55.7334 18.5299 55.8685 16.23 55.197C16.0422 55.1421 15.8246 55.0492 15.799 54.8549C15.7435 54.4579 16.6439 54.2931 16.8999 54.2087C17.5528 53.9975 18.1075 53.7018 18.7049 53.3597C19.6735 52.8064 20.5568 52.118 21.3718 51.362C22.0076 50.7749 22.6008 50.1414 23.1469 49.4782C23.1726 49.4487 23.292 49.3178 23.4243 49.1699C23.356 48.8827 23.292 48.5955 23.2366 48.2956C22.6349 44.9083 23.3347 41.238 25.2976 38.5518C26.5052 36.9004 28.1992 35.5911 30.1237 34.8562V34.8646ZM18.9652 32.2671C17.493 32.2671 16.2982 31.0845 16.2982 29.6274C16.2982 28.1702 17.493 26.9876 18.9652 26.9876C20.4373 26.9876 21.6321 28.1702 21.6321 29.6274C21.6321 31.0845 20.4373 32.2671 18.9652 32.2671Z" fill="white"/>
</svg>
