<svg width="210" height="190" viewBox="0 0 210 190" fill="none" xmlns="http://www.w3.org/2000/svg">
<path d="M91.2672 0.96273C92.4254 0.35939 93.8051 0.35939 94.9633 0.96273L107.337 7.40894C108.066 7.78857 108.894 7.93457 109.709 7.82707L123.541 6.0018C124.836 5.83096 126.133 6.30287 127.014 7.26594L136.438 17.5556C136.993 18.1616 137.721 18.5819 138.523 18.7595L152.146 21.7754C153.421 22.0576 154.478 22.9445 154.977 24.1512L160.312 37.0432C160.627 37.8024 161.167 38.4464 161.86 38.8877L173.63 46.3809C174.731 47.0822 175.421 48.2771 175.478 49.5818L176.082 63.5212C176.118 64.3421 176.406 65.1322 176.906 65.7839L185.403 76.8506C186.198 77.8864 186.438 79.2452 186.045 80.4906L181.845 93.796C181.598 94.5796 181.598 95.4204 181.845 96.204L186.045 109.509C186.438 110.755 186.198 112.114 185.403 113.149L176.906 124.216C176.406 124.868 176.118 125.658 176.082 126.479L175.478 140.418C175.421 141.723 174.731 142.918 173.63 143.619L161.86 151.112C161.167 151.554 160.627 152.198 160.312 152.957L154.977 165.849C154.478 167.055 153.421 167.942 152.146 168.225L138.523 171.24C137.721 171.418 136.993 171.838 136.438 172.444L127.014 182.734C126.133 183.697 124.836 184.169 123.541 183.998L109.709 182.173C108.894 182.065 108.066 182.211 107.337 182.591L94.9633 189.037C93.8051 189.641 92.4254 189.641 91.2672 189.037L78.8931 182.591C78.1644 182.211 77.3364 182.065 76.5218 182.173L62.6892 183.998C61.3945 184.169 60.098 183.697 59.216 182.734L49.7929 172.444C49.2379 171.838 48.5098 171.418 47.7076 171.24L34.0849 168.225C32.8099 167.942 31.7529 167.055 31.2536 165.849L25.918 152.957C25.6038 152.198 25.0634 151.554 24.3702 151.112L12.6006 143.619C11.499 142.918 10.8091 141.723 10.7525 140.418L10.1481 126.479C10.1125 125.658 9.82494 124.868 9.32453 124.216L0.827508 113.149C0.0322207 112.114 -0.207372 110.755 0.18569 109.509L4.38524 96.204C4.63256 95.4204 4.63256 94.5796 4.38524 93.796L0.185689 80.4906C-0.207372 79.2452 0.0322214 77.8864 0.827509 76.8506L9.32453 65.7839C9.82494 65.1322 10.1125 64.3421 10.1481 63.5212L10.7525 49.5818C10.8091 48.2771 11.499 47.0822 12.6006 46.3809L24.3702 38.8877C25.0634 38.4464 25.6038 37.8024 25.918 37.0432L31.2536 24.1512C31.7529 22.9445 32.8099 22.0576 34.0849 21.7754L47.7076 18.7595C48.5098 18.5819 49.2379 18.1616 49.7929 17.5556L59.216 7.26594C60.098 6.30287 61.3945 5.83097 62.6892 6.0018L76.5218 7.82707C77.3364 7.93457 78.1644 7.78857 78.8931 7.40894L91.2672 0.96273Z" fill="#F5EF86"/>
</svg>
