<svg width="521" height="692" viewBox="0 0 521 692" fill="none" xmlns="http://www.w3.org/2000/svg">
<rect x="23.3843" y="33.1254" width="493.394" height="640.198" transform="rotate(1.72449 23.3843 33.1254)" fill="#D9D9D9" stroke="#F7F8DF" stroke-width="8"/>
<path d="M268.642 0C261.301 0 255.218 6.09697 255.218 13.4555V79.8362C255.218 85.2184 259.693 89.7036 265.062 89.7036C270.432 89.7036 274.907 85.2184 274.907 79.8362V22.4259H271.327V79.8362C271.327 83.2421 268.46 86.1154 265.062 86.1154C261.664 86.1154 258.798 83.2421 258.798 79.8362V13.4555C258.798 8.07332 263.272 3.58814 268.642 3.58814C274.012 3.58814 278.486 8.07332 278.486 13.4555V95.9828C278.486 103.341 272.404 109.438 265.062 109.438C257.721 109.438 251.638 103.341 251.638 95.9828V22.4259H248.058V95.9828C248.058 105.311 255.756 113.027 265.062 113.027C274.368 113.027 282.066 105.311 282.066 95.9828V13.4555C282.066 6.09697 275.983 0 268.642 0Z" fill="white"/>
</svg>
