<svg width="157" height="37" viewBox="0 0 157 37" fill="none" xmlns="http://www.w3.org/2000/svg">
<path d="M15.727 18.2022C16.9456 17.7369 18.3224 17.673 19.512 18.2397C20.2138 18.5748 20.9356 19.0313 21.693 19.2231C22.2589 19.3665 22.8871 19.3444 23.3906 19.0511C24.05 18.6675 24.4956 18.0082 24.8632 17.3621C26.6788 14.1537 27.9754 10.5969 28.8353 7.02916C29.194 5.54074 29.5437 3.19897 28.1068 2.25079C26.6253 1.27174 24.2995 1.27174 22.798 1.27836C22.4794 1.27836 22.1319 1.07549 21.8467 0.949805C21.7844 0.923344 21.7242 0.896883 21.6618 0.868217C21.2408 0.685197 20.8197 0.506587 20.3742 0.396334C19.5053 0.180239 18.612 0.0699855 17.7164 0.0280894C15.277 -0.0843687 12.6594 0.120702 10.3714 1.01155C6.19658 2.63888 3.15343 5.75904 1.46254 9.85163C0.462267 12.2684 0.0233938 14.8726 0.001116 17.4789C-0.0256174 20.7557 0.424395 24.0566 1.73433 27.0864C2.81926 29.5957 4.59035 31.814 6.77134 33.4789C7.87632 34.3212 9.09269 35.0246 10.387 35.5384C11.6903 36.0566 13.2141 36.5329 14.6109 36.6541C18.3536 36.9783 22.6688 36.0301 25.0837 32.9695C26.2488 31.4921 26.7278 29.6443 26.6476 27.7876C26.612 26.9563 26.3491 26.0412 26.5318 25.2253C26.7189 24.3896 27.3895 23.6818 26.8503 22.8328C26.6543 22.5263 26.3625 22.2573 26.0016 22.2C25.5181 22.1228 25.0703 22.4337 24.656 22.6939C23.6245 23.34 22.4973 23.6156 21.2764 23.5142C20.5145 23.4524 19.4029 23.3025 19.3984 24.4028C19.3984 24.7005 19.5365 24.996 19.766 25.1856C19.9375 25.3267 20.1514 25.4083 20.3474 25.5142C21.1249 25.9309 21.3767 26.9497 21.3344 27.7567C21.2965 28.4734 20.9556 29.2143 20.3497 29.6134C19.7682 29.9993 19.0576 30.1669 18.367 30.2198C17.2174 30.3102 16.0523 30.0169 15.0587 29.448C14.4594 29.104 13.9582 28.7027 13.5416 28.2396C13.3478 28.3455 13.0314 28.4954 12.9869 28.5131C12.7463 28.6189 12.4967 28.7049 12.2428 28.7733C11.042 29.0974 9.67414 29.168 8.47337 28.8174C8.37535 28.7887 8.26173 28.7402 8.24836 28.6387C8.2194 28.4315 8.68947 28.3455 8.82313 28.3014C9.16398 28.1911 9.45359 28.0368 9.76548 27.8582C10.2712 27.5693 10.7323 27.2099 11.1578 26.8152C11.4898 26.5087 11.7994 26.1779 12.0846 25.8317C12.098 25.8163 12.1603 25.7479 12.2294 25.6707C12.1938 25.5208 12.1603 25.3708 12.1314 25.2143C11.8173 23.4458 12.1826 21.5296 13.2074 20.1272C13.8379 19.265 14.7223 18.5815 15.727 18.1978V18.2022ZM9.90138 16.8461C9.13279 16.8461 8.50901 16.2287 8.50901 15.4679C8.50901 14.7072 9.13279 14.0898 9.90138 14.0898C10.67 14.0898 11.2937 14.7072 11.2937 15.4679C11.2937 16.2287 10.67 16.8461 9.90138 16.8461Z" fill="black"/>
<path d="M46.1207 22.5381C46.1207 23.2923 45.9492 23.6693 44.9222 24.064C44.0467 24.4036 42.9239 24.6484 41.7053 24.6484C38.0896 24.6484 35.1578 22.5205 35.1578 18.3176C35.1578 13.8348 38.5084 12.0244 41.7632 12.0244C42.9439 12.0244 44.1803 12.2692 45.0759 12.741C45.6663 13.0431 45.9715 13.3629 45.9715 13.8348C45.9715 14.3441 45.6106 15.1534 44.9445 15.1534C44.5635 15.1534 44.2026 14.9086 43.6301 14.6815C43.0598 14.4566 42.4115 14.2868 41.6518 14.2868C39.7292 14.2868 37.7888 15.3805 37.7888 18.2802C37.7888 21.1798 39.5777 22.4058 41.7298 22.4058C42.8147 22.4058 43.5566 22.0662 43.5566 22.0662V20.5602C43.5566 20.1258 43.5566 19.8259 43.7459 19.5811C43.9175 19.354 44.2227 19.1864 44.8509 19.1864C45.3076 19.1864 45.7086 19.2813 45.9358 19.5811C46.1252 19.8259 46.1252 20.128 46.1252 20.5602V22.5381H46.1207Z" fill="black"/>
<path d="M57.0992 21.6706C57.7074 20.954 57.7074 19.9948 57.7074 19.2406V13.5317C57.7074 13.0996 57.7074 12.7776 57.8968 12.5329C58.0862 12.2682 58.4493 12.1381 58.9817 12.1381C59.5142 12.1381 59.8751 12.2705 60.0667 12.5329C60.256 12.7776 60.256 13.0973 60.256 13.5317V19.1083C60.256 20.3322 60.256 21.8404 59.151 23.1017C58.3134 24.0631 57.0012 24.7026 54.8314 24.7026C52.6615 24.7026 51.3293 24.0234 50.5295 23.1017C49.4245 21.8404 49.4245 20.427 49.4245 19.1083V13.5317C49.4245 13.0996 49.4245 12.7776 49.6139 12.5329C49.8055 12.2682 50.1463 12.1381 50.7189 12.1381C51.2914 12.1381 51.6122 12.2705 51.8038 12.5329C51.9932 12.7776 51.9932 13.0973 51.9932 13.5317V19.2406C51.9932 19.9948 51.9932 20.954 52.6014 21.6706C53.0581 22.2175 53.7999 22.5196 54.847 22.5196C55.894 22.5196 56.6359 22.2175 57.0926 21.6706H57.0992Z" fill="black"/>
<path d="M70.3076 22.1976C70.7265 22.1976 71.0317 22.1976 71.279 22.3873C71.5262 22.5571 71.6599 22.8393 71.6599 23.3288C71.6599 23.8184 71.5262 24.1006 71.279 24.2704C71.0317 24.46 70.7265 24.46 70.3076 24.46H65.4533C64.5399 24.46 64.2347 24.1028 64.2347 23.2539V13.5317C64.2347 13.0996 64.2347 12.7776 64.4241 12.5329C64.6157 12.2682 64.9944 12.1381 65.5291 12.1381C66.0637 12.1381 66.4246 12.2705 66.614 12.5329C66.8033 12.7776 66.8033 13.0973 66.8033 13.5317V22.1976H70.3054H70.3076Z" fill="black"/>
<path d="M80.4345 22.1976C80.8533 22.1976 81.1585 22.1976 81.4058 22.3873C81.6531 22.5571 81.7867 22.8393 81.7867 23.3288C81.7867 23.8184 81.6531 24.1006 81.4058 24.2704C81.1585 24.46 80.8533 24.46 80.4345 24.46H75.5801C74.6667 24.46 74.3615 24.1028 74.3615 23.2539V13.5317C74.3615 13.0996 74.3615 12.7776 74.5509 12.5329C74.7425 12.2682 75.1212 12.1381 75.6559 12.1381C76.1905 12.1381 76.5514 12.2705 76.7408 12.5329C76.9302 12.7776 76.9302 13.0973 76.9302 13.5317V22.1976H80.4322H80.4345Z" fill="black"/>
<path d="M89.9665 13.2693C90.3653 12.61 90.6705 12.1381 91.7933 12.1381C92.6688 12.1381 92.954 12.4402 92.954 12.8548C92.954 13.137 92.8025 13.4016 92.5552 13.7787L88.6343 19.825V23.159C88.6343 23.6111 88.6343 23.9308 88.4449 24.1756C88.2734 24.4027 87.9882 24.5703 87.36 24.5703C86.8075 24.5703 86.4466 24.438 86.255 24.1756C86.0657 23.9308 86.0657 23.6111 86.0657 23.1767V19.8426L82.3163 13.8515C82.049 13.4369 81.8975 13.1547 81.8975 12.8724C81.8975 12.4204 82.2963 12.1381 83.1718 12.1381C84.2188 12.1381 84.5797 12.5527 85.0186 13.287L87.4358 17.47L89.9665 13.2693Z" fill="black"/>
<path d="M94.2121 24.6298C93.2988 24.6298 92.7284 24.0278 92.7284 23.1612C92.7284 22.2946 93.2988 21.6926 94.2121 21.6926C95.1255 21.6926 95.678 22.277 95.678 23.1612C95.678 24.0454 95.1077 24.6298 94.2121 24.6298Z" fill="black"/>
<path d="M101.995 23.1621C101.995 23.6142 101.995 23.9339 101.806 24.1787C101.614 24.4411 101.236 24.5734 100.721 24.5734C100.206 24.5734 99.8076 24.4411 99.616 24.1787C99.4244 23.9339 99.4244 23.6142 99.4244 23.1621V14.5536H96.9315C96.5127 14.5536 96.2075 14.5536 95.9602 14.3662C95.7129 14.1964 95.5792 13.9141 95.5792 13.4048C95.5792 12.8954 95.7129 12.6506 95.9602 12.4808C96.2075 12.2934 96.5127 12.2736 96.9315 12.2736H104.506C104.905 12.2736 105.21 12.2934 105.457 12.4808C105.705 12.6506 105.838 12.9152 105.838 13.4048C105.838 13.8943 105.705 14.1964 105.457 14.3662C105.21 14.5536 104.905 14.5536 104.506 14.5536H101.993V23.1621H101.995Z" fill="black"/>
<path d="M113.55 11.9901C117.491 11.9901 119.984 14.6847 119.984 18.3385C119.984 21.9923 117.415 24.7243 113.454 24.7243C109.493 24.7243 107.02 22.0297 107.02 18.376C107.02 14.7222 109.591 11.9901 113.55 11.9901ZM113.512 22.559C115.891 22.559 117.357 21.0132 117.357 18.376C117.357 15.7387 115.874 14.1555 113.494 14.1555C111.115 14.1555 109.649 15.7012 109.649 18.3385C109.649 20.9757 111.133 22.559 113.512 22.559Z" fill="black"/>
<path d="M130.771 21.6706C131.379 20.954 131.379 19.9948 131.379 19.2406V13.5317C131.379 13.0996 131.379 12.7776 131.568 12.5329C131.758 12.2682 132.121 12.1381 132.653 12.1381C133.186 12.1381 133.547 12.2705 133.738 12.5329C133.928 12.7776 133.928 13.0973 133.928 13.5317V19.1083C133.928 20.3322 133.928 21.8404 132.823 23.1017C131.985 24.0631 130.673 24.7026 128.503 24.7026C126.333 24.7026 125.001 24.0234 124.201 23.1017C123.096 21.8404 123.096 20.427 123.096 19.1083V13.5317C123.096 13.0996 123.096 12.7776 123.286 12.5329C123.477 12.2682 123.818 12.1381 124.391 12.1381C124.963 12.1381 125.286 12.2705 125.476 12.5329C125.665 12.7776 125.665 13.0973 125.665 13.5317V19.2406C125.665 19.9948 125.665 20.954 126.273 21.6706C126.73 22.2175 127.472 22.5196 128.519 22.5196C129.566 22.5196 130.308 22.2175 130.764 21.6706H130.771Z" fill="black"/>
<path d="M140.381 23.159C140.381 23.6111 140.399 23.9308 140.21 24.1756C140.021 24.438 139.677 24.5703 139.163 24.5703C138.648 24.5703 138.287 24.438 138.096 24.1756C137.906 23.9308 137.906 23.6111 137.906 23.159V13.8338C137.906 13.212 137.906 12.6475 138.916 12.3653C139.372 12.233 140.114 12.1381 141.123 12.1381C142.133 12.1381 143.255 12.233 144.207 12.7026C145.405 13.287 146.109 14.341 146.109 15.8118C146.109 17.3575 145.347 18.524 143.959 19.1833L146.967 23.234C147.406 23.836 147.214 24.5725 145.902 24.5725C144.931 24.5725 144.588 24.1579 144.131 23.4788L142.4 20.9341C141.943 20.2748 141.676 19.728 141.676 19.728C141.676 19.728 141.429 19.7478 141.03 19.7478C140.631 19.7478 140.384 19.728 140.384 19.728V23.1568L140.381 23.159ZM140.381 17.7522C140.381 17.7522 140.647 17.7699 140.952 17.7699C142.569 17.7699 143.503 17.2429 143.503 15.9617C143.503 14.6806 142.531 14.266 141.333 14.266C140.8 14.266 140.381 14.341 140.381 14.341V17.75V17.7522Z" fill="black"/>
<path d="M155.077 17.8133C156.124 18.4726 157 19.434 157 20.9974C157 23.3524 155.019 24.671 152.812 24.671C151.898 24.671 150.927 24.4439 150.147 24.0492C149.595 23.767 149.138 23.37 149.138 22.8254C149.138 22.2807 149.537 21.6016 150.165 21.6016C150.869 21.6016 151.459 22.5255 152.734 22.5255C153.723 22.5255 154.427 21.9787 154.427 21.1121C154.427 20.2455 153.665 19.7361 152.865 19.3216C151.647 18.6821 149.383 17.8155 149.383 15.4781C149.383 13.4054 151.134 12.0316 153.418 12.0316C155.093 12.0316 156.768 12.7659 156.768 13.7273C156.768 14.2543 156.292 14.9136 155.701 14.9136C155.073 14.9136 154.445 14.1794 153.398 14.1794C152.522 14.1794 151.952 14.6689 151.952 15.348C151.952 16.5167 153.741 16.9864 155.073 17.8155L155.077 17.8133Z" fill="black"/>
</svg>
