<svg width="151" height="374" viewBox="0 0 151 374" fill="none" xmlns="http://www.w3.org/2000/svg">
<path d="M150.34 191.737V181.84C144.239 182.592 144.255 171.272 150.34 172.025V162.177C143.742 162.177 144.705 151.659 150.34 152.362V142.514C144.208 143.267 144.27 131.947 150.34 132.699V122.868C144.643 123.571 143.758 113.053 150.34 113.053V103.205C144.255 103.958 144.255 92.6376 150.34 93.3901V83.5423C143.742 83.5423 144.705 73.0239 150.34 73.7273V63.8795C144.674 64.5829 143.727 54.0645 150.34 54.0645V44.2331C144.239 44.9856 144.255 33.6656 150.34 34.4181V24.5703C144.239 25.3228 144.255 14.0028 150.34 14.7553V4.92388C148.12 5.20197 145.683 2.84636 145.683 0H136.213C136.213 6.46157 126.898 6.49428 126.898 0H117.413C117.413 6.47792 108.098 6.49428 108.098 0H98.6278C98.6278 6.46157 89.3131 6.49428 89.3131 0H79.8275C79.8275 6.47792 70.5128 6.49428 70.5128 0H61.0428C61.0428 6.46157 51.728 6.49428 51.728 0H42.2424C42.2424 6.47792 32.9277 6.49428 32.9277 0H23.4577C23.4577 6.46157 14.1429 6.49428 14.1429 0H4.65738C4.65738 2.60098 2.68576 4.89116 0 4.89116V14.7389C6.14774 14.7389 6.14774 24.5539 0 24.5539V34.4017C6.14774 34.4017 6.14774 44.2167 0 44.2167V54.0645C6.16327 54.0645 6.14774 63.8795 0 63.8795V73.7109C6.14774 73.7109 6.16327 83.526 0 83.526V93.3737C6.14774 93.3737 6.14774 103.189 0 103.189V113.037C6.16327 113.037 6.14774 122.852 0 122.852V132.683C6.14774 132.683 6.16327 142.498 0 142.498V152.346C6.14774 152.346 6.14774 162.161 0 162.161V172.009C6.14774 172.009 6.14774 181.824 0 181.824V191.688C2.67023 191.671 4.64186 193.929 4.65738 196.562H14.1429C14.1429 190.068 23.4577 190.085 23.4577 196.562H32.9277C32.9277 190.085 42.2424 190.068 42.2424 196.562H51.728C51.728 190.052 61.0428 190.085 61.0428 196.562H70.5128C70.5128 190.085 79.8275 190.085 79.8275 196.562H89.3131C89.3131 190.068 98.6278 190.085 98.6278 196.562H108.098C108.098 190.085 117.413 190.085 117.413 196.562H126.898C126.898 190.068 136.213 190.085 136.213 196.562H145.683C145.683 193.978 147.561 191.72 150.34 191.72V191.737Z" fill="#53A3B1"/>
<path d="M150.34 369.174V359.277C144.239 360.03 144.255 348.71 150.34 349.462V339.615C143.742 339.615 144.705 329.096 150.34 329.8V319.952C144.208 320.704 144.27 309.384 150.34 310.137V300.305C144.643 301.009 143.758 290.49 150.34 290.49V280.643C144.255 281.395 144.255 270.075 150.34 270.828V260.98C143.742 260.98 144.705 250.461 150.34 251.165V241.317C144.674 242.02 143.727 231.502 150.34 231.502V221.671C144.239 222.423 144.255 211.103 150.34 211.856V202.008C144.239 202.76 144.255 191.44 150.34 192.193V182.361C148.12 182.64 145.683 180.284 145.683 177.438H136.213C136.213 183.899 126.898 183.932 126.898 177.438H117.413C117.413 183.915 108.098 183.932 108.098 177.438H98.6278C98.6278 183.899 89.3131 183.932 89.3131 177.438H79.8275C79.8275 183.915 70.5128 183.932 70.5128 177.438H61.0428C61.0428 183.899 51.728 183.932 51.728 177.438H42.2424C42.2424 183.915 32.9277 183.932 32.9277 177.438H23.4577C23.4577 183.899 14.1429 183.932 14.1429 177.438H4.65738C4.65738 180.039 2.68576 182.329 0 182.329V192.176C6.14774 192.176 6.14774 201.991 0 201.991V211.839C6.14774 211.839 6.14774 221.654 0 221.654V231.502C6.16327 231.502 6.14774 241.317 0 241.317V251.148C6.14774 251.148 6.16327 260.963 0 260.963V270.811C6.14774 270.811 6.14774 280.626 0 280.626V290.474C6.16327 290.474 6.14774 300.289 0 300.289V310.12C6.14774 310.12 6.16327 319.936 0 319.936V329.783C6.14774 329.783 6.14774 339.598 0 339.598V349.446C6.14774 349.446 6.14774 359.261 0 359.261V369.125C2.67023 369.109 4.64186 371.366 4.65738 374H14.1429C14.1429 367.506 23.4577 367.522 23.4577 374H32.9277C32.9277 367.522 42.2424 367.506 42.2424 374H51.728C51.728 367.489 61.0428 367.522 61.0428 374H70.5128C70.5128 367.522 79.8275 367.522 79.8275 374H89.3131C89.3131 367.506 98.6278 367.522 98.6278 374H108.098C108.098 367.522 117.413 367.522 117.413 374H126.898C126.898 367.506 136.213 367.522 136.213 374H145.683C145.683 371.415 147.561 369.158 150.34 369.158V369.174Z" fill="#53A3B1"/>
</svg>
